{"title":"Hemo (2010)","uid":8211594,"size":1120680285,"categoryP":"video","categoryS":"movies","magnet":"?xt=urn:btih:6d94f793331d36ed1569fc8cd1c0e4889d7ccb75&amp;dn=Hemo+%282010%29&amp;tr=udp%3A%2F%2Ftracker.openbittorrent.com%3A80&amp;tr=udp%3A%2F%2Fopen.demonii.com%3A1337&amp;tr=udp%3A%2F%2Ftracker.coppersurfer.tk%3A6969&amp;tr=udp%3A%2F%2Fexodus.desync.com%3A6969","seeders":1,"leechers":0,"uploader":"RadioResearch","files":3,"time":1362251151,"description":"*******************************************************************************\n                                  Hemo (2010)\n*******************************************************************************\n\n-------------------------------------------------------------------------------\n                              General Information\n-------------------------------------------------------------------------------\nType.................: Movie\n\n\n\nVideo Format.........: AVI\nVideo Bitrate........: 1836\nResolution...........: 720 x 404\nColor................: 8 bit\nFPS..................: 29.97\nSource...............: DVD 16x9\nOriginal Format......: NTSC\nGenre................: Horror\nIMDb Rating..........: Not yet rated\nMovie Information....: http://www.imdb.com/title/tt1649763/\n\n-------------------------------------------------------------------------------\n                                 Release Notes\n-------------------------------------------------------------------------------\nSEEDBOX SUPPORTED\n\nFelicia and Calvin are two 'vampires' living in a desolate Long Island where \nthings are tolerable...Until the local blood bank amps up security measures and \ntheir hunt for the red stuff sends them down a rabbit hole of desperation and \ndecadence. Their humanitarian methods of obtaining their sanguine drug soon go \nout the window when they are faced with the reality of their situation. Once \nblood has been drawn, the scenario worsens until an all-out massacre is not far \noff and the maladjusted addicts must consider their rather grim fate, as a \ncouple and as the monsters that they have become.\n\nA Troma release, but a fairly decent film for all that!\n\nEnjoy!\n\nRadioResearch\n\nPlease seed and go to IMDN and vote on this film!!!!\n\nGeneral\nComplete name                            : G:Hemo (2010)HEMO.Title3.avi\nFormat                                   : AVI\nFormat/Info                              : Audio Video Interleave\nFormat profile                           : OpenDML\nFile size                                : 1.04 GiB\nDuration                                 : 1h 21mn\nOverall bit rate                         : 1 836 Kbps\nMovie name                               : HEMO.Title3.DVDRip\nWriting application                      : Lavf53.21.0\nOriginal source form/Name                : HEMO\n\nVideo\nID                                       : 0\nFormat                                   : MPEG-4 Visual\nFormat profile                           : Advanced Simple@L5\nFormat settings, BVOP                    : 2\nFormat settings, QPel                    : No\nFormat settings, GMC                     : No warppoints\nFormat settings, Matrix                  : Default (H.263)\nMuxing mode                              : Packed bitstream\nCodec ID                                 : XVID\nCodec ID/Hint                            : XviD\nDuration                                 : 1h 21mn\nBit rate                                 : 1 693 Kbps\nWidth                                    : 720 pixels\nHeight                                   : 404 pixels\nDisplay aspect ratio                     : 16:9\nFrame rate                               : 29.970 fps\nColor space                              : YUV\nChroma subsampling                       : 4:2:0\nBit depth                                : 8 bits\nScan type                                : Progressive\nCompression mode                         : Lossy\nBits/(Pixel*Frame)                       : 0.194\nStream size                              : 985 MiB (92%)\nWriting library                          : XviD 1.2.1 (UTC 2008-12-04)\n\nAudio\nID                                       : 1\nFormat                                   : AC-3\nFormat/Info                              : Audio Coding 3\nMode extension                           : CM (complete main)\nFormat settings, Endianness              : Big\nCodec ID                                 : 2000\nDuration                                 : 1h 21mn\nBit rate mode                            : Constant\nBit rate                                 : 128 Kbps\nChannel(s)                               : 2 channels\nChannel positions                        : Front: L R\nSampling rate                            : 48.0 KHz\nBit depth                                : 16 bits\nCompression mode                         : Lossy\nStream size                              : 74.4 MiB (7%)\nAlignment                                : Aligned on interleaves\nInterleave, duration                     : 32 ms (0.96 video frame)\n\n\n\n\n-------------------------------------------------------------------------------\nGenerated with Cool NFO Creator - http://fly.to/coolbeans\n-------------------------------------------------------------------------------\n","torrent":{"xt":"urn:btih:6d94f793331d36ed1569fc8cd1c0e4889d7ccb75","amp;dn":"Hemo+%282010%29","amp;tr":["udp%3A%2F%2Ftracker.openbittorrent.com%3A80","udp%3A%2F%2Fopen.demonii.com%3A1337","udp%3A%2F%2Ftracker.coppersurfer.tk%3A6969","udp%3A%2F%2Fexodus.desync.com%3A6969"],"infoHash":"6d94f793331d36ed1569fc8cd1c0e4889d7ccb75","infoHashBuffer":{"type":"Buffer","data":[109,148,247,147,51,29,54,237,21,105,252,140,209,192,228,136,157,124,203,117]},"announce":[],"urlList":[]}}